<svg width="12" height="18" viewBox="0 0 12 18" fill="none" xmlns="http://www.w3.org/2000/svg">
<path d="M5.99339 7.83503C7.46503 7.83503 8.80668 7.92121 9.68129 8.05103C9.6835 8.05305 9.70532 8.05804 9.7421 8.06561L9.99273 8.11578C10.3127 8.18079 10.7934 8.28643 11.0086 8.39793C11.6211 8.71539 12 9.33611 12 10.0005V10.0583C11.9857 10.4914 11.6057 11.4012 11.5924 11.4012C10.9502 12.9317 8.95319 15.9491 7.62585 17.1622L7.58042 17.207C7.48045 17.3048 7.23713 17.5377 7.07178 17.6531C6.76556 17.8844 6.38663 18 6.00771 18C5.58473 18 5.19148 17.8702 4.86984 17.6247C4.81146 17.5669 4.56471 17.3509 4.35983 17.148C3.07656 15.9644 0.978153 12.8739 0.335965 11.2572C0.233523 11.0117 0.0154213 10.391 0 10.0583C0 9.74083 0.0738021 9.43756 0.219203 9.14847C0.422985 8.78738 0.74463 8.49939 1.12355 8.34012C1.38572 8.23866 2.17331 8.07939 2.18763 8.07939C3.04792 7.92121 4.44685 7.83503 5.99339 7.83503ZM6.00044 0C6.8387 0 7.51834 0.673083 7.51834 1.50325L7.19119 5.20248C7.19119 5.85375 6.65805 6.38174 6.00044 6.38174C5.34173 6.38174 4.80969 5.85375 4.80969 5.20248L4.48254 1.50325C4.48254 0.673083 5.16218 0 6.00044 0Z" fill="black" fill-opacity="0.3"/>
</svg>
