<svg width="10" height="14" viewBox="0 0 10 14" fill="none" xmlns="http://www.w3.org/2000/svg">
<path d="M5.27053 7.87258L5.00496 7.87373C3.90123 7.87373 2.89499 7.80909 2.23903 7.71173L1.83112 7.62643C1.61509 7.57898 1.3691 7.51659 1.24353 7.45155C0.784193 7.21346 0.5 6.74792 0.5 6.24965V6.20629C0.51074 5.88148 0.795759 5.19912 0.805673 5.19912C1.26637 4.10114 2.65679 1.98284 3.64804 1.0045L3.94564 0.720196C4.0263 0.645748 4.12176 0.562105 4.19616 0.510179C4.42583 0.336726 4.71002 0.25 4.99422 0.25C5.31146 0.25 5.60639 0.347362 5.84762 0.531451L6.16285 0.823546L6.23013 0.888992C7.19258 1.77671 8.76639 4.09459 9.24803 5.30712L9.31818 5.49019C9.39715 5.71048 9.49133 6.01913 9.5 6.20629C9.5 6.44438 9.44465 6.67183 9.3356 6.88865C9.18276 7.15946 8.94153 7.37546 8.65733 7.49491C8.46071 7.571 7.87002 7.69045 7.85928 7.69045C7.2637 7.79996 6.32389 7.86346 5.27053 7.87258ZM4.99967 13.75C4.37097 13.75 3.86124 13.2452 3.86124 12.6226L4.10661 9.84814C4.10661 9.35969 4.50646 8.96369 4.99967 8.96369C5.4937 8.96369 5.89273 9.35969 5.89273 9.84814L6.13809 12.6226C6.13809 13.2452 5.62836 13.75 4.99967 13.75Z" fill="#202020" fill-opacity="0.3"/>
</svg>
